<?xml version="1.0" standalone="no"?>
<!DOCTYPE svg PUBLIC "-//W3C//DTD SVG 20010904//EN"
 "http://www.w3.org/TR/2001/REC-SVG-20010904/DTD/svg10.dtd">
<svg version="1.0" xmlns="http://www.w3.org/2000/svg"
 width="2200.000000pt" height="1700.000000pt" viewBox="0 0 2200.000000 1700.000000"
 preserveAspectRatio="xMidYMid meet">
<metadata>
Created by potrace 1.16, written by Peter Selinger 2001-2019
</metadata>
<g transform="translate(0.000000,1700.000000) scale(0.100000,-0.100000)"
fill="#000000" stroke="none">
<path d="M15555 10939 c-229 -35 -420 -196 -492 -414 -36 -109 -38 -266 -6
-370 139 -443 696 -581 1025 -253 196 197 232 512 86 755 -45 75 -161 182
-240 221 -114 56 -255 79 -373 61z m180 -320 c56 -14 131 -71 165 -126 96
-150 39 -344 -125 -431 -42 -22 -63 -27 -130 -27 -67 0 -88 5 -131 27 -90 47
-154 138 -169 239 -15 104 53 236 151 291 83 46 139 52 239 27z"/>
<path d="M11859 10415 c-150 -30 -270 -96 -391 -216 -75 -75 -93 -100 -136
-190 -89 -183 -83 -50 -80 -1799 l3 -1545 24 -70 c72 -213 200 -363 393 -460
172 -86 39 -80 1813 -80 l1570 0 84 22 c274 73 475 274 554 551 l22 77 3 1373
c1 754 0 1372 -3 1372 -3 0 -47 -7 -97 -16 -378 -65 -758 184 -859 563 -27
101 -30 271 -6 361 9 35 17 66 17 68 0 2 -640 4 -1422 3 -1137 -1 -1436 -4
-1489 -14z m3171 -1385 l0 -180 170 0 170 0 0 -200 0 -200 -170 0 -170 0 0
-277 c0 -201 4 -285 13 -302 39 -77 135 -88 305 -36 l22 7 0 -190 0 -189 -60
-26 c-196 -85 -493 -72 -623 27 -55 42 -100 103 -129 173 -22 57 -23 67 -26
436 l-3 377 -90 0 -89 0 0 200 0 200 90 0 90 0 0 180 0 180 250 0 250 0 0
-180z m-1250 -164 c160 -29 275 -90 382 -204 75 -79 127 -174 164 -297 21 -73
27 -117 31 -232 l6 -143 -492 0 c-445 0 -491 -2 -491 -16 0 -30 62 -134 96
-159 70 -53 121 -69 224 -69 114 1 175 21 265 89 33 25 61 45 64 45 2 0 58
-44 123 -97 66 -54 127 -104 136 -111 15 -12 9 -21 -58 -85 -89 -85 -177 -139
-281 -172 -223 -70 -456 -53 -664 49 -304 150 -454 499 -369 856 9 36 36 107
61 159 38 79 59 108 131 181 93 93 171 143 279 179 123 41 261 51 393 27z
m-1716 -433 c76 -230 142 -422 146 -426 4 -5 72 183 150 417 l144 426 258 0
c142 0 258 -2 258 -4 0 -2 -130 -327 -289 -722 l-289 -719 -233 -2 -234 -3
-288 718 c-158 394 -287 720 -287 725 0 4 118 7 263 7 l262 0 139 -417z"/>
<path d="M13525 8491 c-70 -32 -133 -121 -150 -213 l-7 -38 261 0 261 0 0 25
c0 35 -34 120 -64 160 -14 18 -49 45 -78 59 -65 32 -161 35 -223 7z"/>
<path d="M9030 9029 l0 -331 -52 46 c-238 209 -607 190 -835 -41 -59 -60 -82
-93 -122 -176 -68 -140 -86 -226 -86 -407 0 -175 17 -252 82 -390 39 -81 58
-108 132 -180 133 -133 257 -183 446 -182 160 1 263 42 381 154 l54 51 0 -87
0 -86 265 0 265 0 0 980 0 980 -265 0 -265 0 0 -331z m-163 -605 c62 -29 107
-78 142 -154 22 -46 26 -69 26 -145 0 -78 -4 -97 -28 -147 -114 -231 -414
-233 -527 -3 -22 43 -25 64 -25 155 0 91 3 111 24 150 81 156 239 214 388 144z"/>
<path d="M5740 8340 l0 -940 270 0 270 0 0 940 0 940 -270 0 -270 0 0 -940z"/>
<path d="M7265 8876 c-105 -27 -186 -76 -267 -159 l-48 -48 0 95 0 96 -265 0
-265 0 0 -730 0 -730 265 0 265 0 0 413 c0 469 3 490 69 556 89 89 238 76 308
-27 38 -58 43 -114 43 -537 l0 -405 260 0 261 0 -3 553 c-3 540 -4 553 -25
610 -48 127 -121 219 -207 264 -105 54 -286 77 -391 49z"/>
<path d="M9650 8338 c0 -567 3 -602 55 -713 34 -71 119 -163 182 -197 124 -68
307 -82 440 -36 79 28 181 96 231 153 l32 36 0 -91 0 -90 265 0 265 0 0 730 0
730 -265 0 -265 0 0 -423 c0 -243 -4 -436 -10 -456 -13 -47 -47 -93 -88 -122
-49 -33 -144 -39 -199 -10 -50 25 -89 70 -103 119 -6 23 -10 201 -10 465 l0
427 -265 0 -265 0 0 -522z"/>
</g>
</svg>
